# xmcd
#
# Track frame offsets:
#	150
#	18699
#	34508
#	47323
#	63148
#	79618
#	94962
#	112852
#	127176
#	141554
#	157826
#	171859
#
# Disc length: 2474 seconds
# Revision: 0
# Processed by: cddbd v1.5.2PL0 Copyright (c) Steve Scherf et al.
# Submitted via: dBpowerAMP V12.0
#
DISCID=9409a80c
DTITLE=Macy Martin - Find My Melody
DYEAR=2015
DGENRE=Country
TTITLE0=Back To Reality
TTITLE1=Baby What Ya Doing
TTITLE2=Like I Mean It
TTITLE3=Like To Get To Know You
TTITLE4=Roll With Me
TTITLE5=Somebody's Daughter
TTITLE6=Beginning Of The End
TTITLE7=Find My Melody
TTITLE8=Not A Juliet Song
TTITLE9=Headway
TTITLE10=Take A Little Time
TTITLE11=Small Town Sparks
EXTD=
EXTT0=
EXTT1=
EXTT2=
EXTT3=
EXTT4=
EXTT5=
EXTT6=
EXTT7=
EXTT8=
EXTT9=
EXTT10=
EXTT11=
PLAYORDER=
